<svg width="100" height="100" viewBox="0 0 143 143" fill="none" xmlns="http://www.w3.org/2000/svg">
<g clip-path="url(#clip0_63_16561)">
<g filter="url(#filter0_i_63_16561)">
<path d="M142.86 71.4406C142.86 73.9339 142.733 76.3955 142.48 78.8255C142.237 81.2237 141.867 83.5903 141.391 85.9252C140.239 91.5035 138.443 96.8388 136.076 101.847C133.646 107.013 130.603 111.841 127.063 116.236C123.449 120.726 119.297 124.762 114.7 128.259C108.455 133.024 101.397 136.785 93.7783 139.289C86.7515 141.613 79.2281 142.86 71.4195 142.86C60.9903 142.86 51.0894 140.62 42.1606 136.606C33.0417 132.506 24.9477 126.558 18.3436 119.226C7.76644 107.488 1.02496 92.2114 0.105672 75.3919C0.0317062 74.0818 0 72.7612 0 71.43C0 65.1332 0.813627 59.0267 2.34578 53.2054C3.48697 48.8526 5.04028 44.6689 6.9317 40.6858C18.4176 16.6293 42.9743 0 71.43 0C95.0252 0 115.958 11.4419 128.954 29.0749C131.047 31.9169 132.938 34.9279 134.608 38.0657C139.204 46.7501 142.067 56.5016 142.712 66.8554C142.807 68.3873 142.86 69.9086 142.86 71.4406Z" fill="url(#paint0_radial_63_16561)"/>
</g>
<path d="M142.124 78.7884L142.124 78.7895C141.883 81.175 141.515 83.5298 141.041 85.8539C139.895 91.404 138.108 96.712 135.753 101.694L135.753 101.695C133.335 106.835 130.307 111.639 126.785 116.012L126.785 116.012C123.189 120.48 119.057 124.495 114.484 127.975L114.483 127.975C108.27 132.716 101.247 136.459 93.6668 138.95L93.6661 138.95C86.6755 141.262 79.19 142.503 71.4195 142.503C61.0419 142.503 51.1908 140.274 42.3071 136.28L42.1685 136.588L42.3071 136.28C33.2339 132.201 25.1803 126.283 18.609 118.987L18.6089 118.987C8.08441 107.308 1.37697 92.1075 0.46229 75.3724L0.462254 75.3717C0.388724 74.0694 0.35715 72.7556 0.35715 71.43C0.35715 65.1641 1.16677 59.0881 2.69117 53.2963L2.69125 53.2959C3.82646 48.966 5.37183 44.8033 7.25407 40.8396C18.6829 16.9026 43.1171 0.35715 71.43 0.35715C94.907 0.35715 115.735 11.7413 128.667 29.2868C130.749 32.1145 132.631 35.1106 134.292 38.2332C138.865 46.8739 141.714 56.576 142.356 66.8775C142.45 68.403 142.503 69.9169 142.503 71.4406C142.503 73.9218 142.377 76.371 142.124 78.7884Z" stroke="url(#paint1_linear_63_16561)" stroke-width="0.7143"/>
</g>
<defs>
<filter id="filter0_i_63_16561" x="-14.286" y="0" width="157.146" height="150.717" filterUnits="userSpaceOnUse" color-interpolation-filters="sRGB">
<feFlood flood-opacity="0" result="BackgroundImageFix"/>
<feBlend mode="normal" in="SourceGraphic" in2="BackgroundImageFix" result="shape"/>
<feColorMatrix in="SourceAlpha" type="matrix" values="0 0 0 0 0 0 0 0 0 0 0 0 0 0 0 0 0 0 127 0" result="hardAlpha"/>
<feOffset dx="-14.286" dy="7.8573"/>
<feGaussianBlur stdDeviation="12.1431"/>
<feComposite in2="hardAlpha" operator="arithmetic" k2="-1" k3="1"/>
<feColorMatrix type="matrix" values="0 0 0 0 1 0 0 0 0 1 0 0 0 0 1 0 0 0 0.65 0"/>
<feBlend mode="normal" in2="shape" result="effect1_innerShadow_63_16561"/>
</filter>
<radialGradient id="paint0_radial_63_16561" cx="0" cy="0" r="1" gradientUnits="userSpaceOnUse" gradientTransform="translate(108 6) rotate(120.694) scale(145.947 146.404)">
<stop stop-color="#C5FFFB"/>
<stop offset="0.652128" stop-color="#217183"/>
<stop offset="1" stop-color="#2ACBCB"/>
</radialGradient>
<linearGradient id="paint1_linear_63_16561" x1="108" y1="14.5" x2="29.692" y2="105.665" gradientUnits="userSpaceOnUse">
<stop stop-color="white"/>
<stop offset="1" stop-color="white" stop-opacity="0"/>
</linearGradient>
<clipPath id="clip0_63_16561">
<rect width="142.86" height="142.86" rx="71.43" fill="white"/>
</clipPath>
</defs>
</svg>
